<svg  viewBox="0 0 142 102" fill="none" xmlns="http://www.w3.org/2000/svg">
<g id="IconoLuz">
<path id="O" d="M131.385 86.5522C130.344 87.1855 129.545 88.0813 128.987 89.2426C128.429 90.4039 128.152 91.7441 128.152 93.2628V94.1388C128.18 95.6014 128.48 96.8974 129.052 98.0268C129.624 99.1561 130.421 100.024 131.443 100.632C132.465 101.239 133.637 101.543 134.957 101.543C136.28 101.543 137.457 101.228 138.489 100.599C139.524 99.9707 140.321 99.0746 140.883 97.9093C141.444 96.7453 141.723 95.4067 141.723 93.892V93.1788C141.717 91.6868 141.428 90.364 140.855 89.2107C140.284 88.056 139.483 87.1668 138.453 86.5414C137.423 85.9174 136.252 85.6039 134.939 85.6039C133.611 85.6039 132.425 85.9215 131.385 86.5522ZM132.712 97.3972C132.207 96.5826 131.955 95.412 131.955 93.892L131.965 92.752C132.072 89.94 133.063 88.532 134.939 88.532C135.897 88.532 136.633 88.9348 137.148 89.7335C137.664 90.5308 137.921 91.7026 137.921 93.2439V93.9561C137.913 95.4628 137.655 96.6173 137.144 97.42C136.632 98.2227 135.903 98.6228 134.957 98.6228C133.965 98.6228 133.215 98.2146 132.712 97.3972Z" fill="url(#paint0_linear_101:2)"/>
<path id="G" d="M115.431 86.5147C114.428 87.1307 113.655 88.0052 113.115 89.1466C112.573 90.2866 112.304 91.6199 112.304 93.1466L112.315 94.488C112.399 96.7067 113.049 98.4361 114.264 99.6788C115.48 100.921 117.1 101.543 119.133 101.543C120.455 101.543 121.671 101.345 122.777 100.959C123.885 100.567 124.728 100.051 125.303 99.4122V93.0414H118.963V95.6069H121.563V98.016C121.087 98.4507 120.363 98.6654 119.389 98.6654C118.252 98.6654 117.419 98.2774 116.891 97.5001C116.361 96.7214 116.097 95.5588 116.097 94.0108V93.0733C116.104 91.5947 116.363 90.4602 116.875 89.6628C117.385 88.8682 118.111 88.4708 119.048 88.4708C119.829 88.4708 120.433 88.6548 120.86 89.0255C121.287 89.3948 121.563 90.012 121.689 90.8774H125.292C125.112 89.124 124.491 87.8054 123.421 86.9187C122.353 86.036 120.851 85.5919 118.919 85.5919C117.599 85.5919 116.436 85.9001 115.431 86.5147Z" fill="url(#paint1_linear_101:2)"/>
<path id="E" d="M99.2787 85.8173V101.329H109.965V98.4517H103.02V94.7454H108.9V91.9758H103.02V88.7024H109.985V85.8173H99.2787Z" fill="url(#paint2_linear_101:2)"/>
<path id="UU" d="M92.096 85.8175V95.948C92.096 96.908 91.896 97.6014 91.4987 98.0268C91.1 98.4521 90.5147 98.6654 89.74 98.6654C88.2067 98.6654 87.4187 97.8186 87.3747 96.1186V85.8175H83.6147V96.0453C83.6347 97.7493 84.188 99.092 85.2787 100.072C86.364 101.053 87.852 101.543 89.74 101.543C90.9893 101.543 92.0733 101.321 92.9907 100.883C93.9053 100.441 94.6107 99.8014 95.1 98.9587C95.5907 98.1174 95.8347 97.1215 95.8347 95.9708V85.8175H92.096Z" fill="url(#paint3_linear_101:2)"/>
<path id="F" d="M70.6227 85.8173V101.329H74.3627V95.1493H80.3907V92.2734H74.3627V88.7024H80.9987V85.8173H70.6227Z" fill="url(#paint4_linear_101:2)"/>
<path id="Y" d="M57.7947 85.8173L54.9387 92.5507L52.0734 85.8173H48.0587L53.044 95.7584V101.329H56.8374V95.7584L61.8334 85.8173H57.7947Z" fill="url(#paint5_linear_101:2)"/>
<path id="Z" d="M27.7854 85.8173V88.7024H35.2214L27.8267 99.3586V101.329H39.9081V98.4517H32.4934L39.8361 87.7346V85.8173H27.7854Z" fill="url(#paint6_linear_101:2)"/>
<path id="U" d="M21.1107 85.8175V95.948C21.1107 96.908 20.9107 97.6014 20.5147 98.0268C20.116 98.4521 19.5293 98.6654 18.756 98.6654C17.2227 98.6654 16.4333 97.8186 16.3907 96.1186V85.8175H12.6307V96.0453C12.6507 97.7493 13.204 99.092 14.292 100.072C15.3773 101.053 16.8653 101.543 18.756 101.543C20.0053 101.543 21.088 101.321 22.0054 100.883C22.9214 100.441 23.6254 99.8014 24.1134 98.9587C24.604 98.1174 24.8507 97.1215 24.8507 95.9708V85.8175H21.1107Z" fill="url(#paint7_linear_101:2)"/>
<path id="L" d="M0 85.8173V101.329H10.2507V98.4517H3.74V85.8173H0Z" fill="url(#paint8_linear_101:2)"/>
<path id="Corona" d="M65.808 27.2865L55.7587 19.9919L57.0507 32.3411L45.7413 31.1572L53.7013 46.6452L58.4067 44.2266L54.9187 37.4385L62.992 38.2852L62.256 31.248L67.9813 35.404L70.8627 28.9427L73.7427 35.404L79.4653 31.2493L78.7293 38.2839L86.9427 37.4238L83.284 45L88.0507 47.3027L95.84 31.1732L84.672 32.3411L85.964 19.9906L75.916 27.2865L70.8627 15.9453L65.808 27.2865Z" fill="url(#paint9_linear_101:2)"/>
<path id="Circulo" d="M35.6014 35.2585C35.6014 54.6998 51.42 70.5186 70.8627 70.5186C90.3027 70.5186 106.121 54.6998 106.121 35.2585C106.121 15.8171 90.3027 0 70.8627 0C51.42 0 35.6014 15.8171 35.6014 35.2585ZM41.2707 35.2585C41.2707 18.9425 54.544 5.66927 70.8627 5.66927C87.1787 5.66927 100.452 18.9425 100.452 35.2585C100.452 51.5758 87.1787 64.8493 70.8627 64.8493C54.544 64.8493 41.2707 51.5758 41.2707 35.2585Z" fill="url(#paint10_linear_101:2)"/>
</g>
<defs>
<linearGradient id="paint0_linear_101:2" x1="134.938" y1="100.46" x2="134.938" y2="86.6493" gradientUnits="userSpaceOnUse">
<stop stop-color="#4260BB"/>
<stop offset="0.0957778" stop-color="#4260BB"/>
<stop offset="0.37805" stop-color="#0068A9"/>
<stop offset="0.805494" stop-color="#009CCA"/>
<stop offset="0.980447" stop-color="#009CCA"/>
<stop offset="1" stop-color="#009CCA"/>
</linearGradient>
<linearGradient id="paint1_linear_101:2" x1="118.803" y1="100.46" x2="118.803" y2="86.6493" gradientUnits="userSpaceOnUse">
<stop stop-color="#4260BB"/>
<stop offset="0.0957778" stop-color="#4260BB"/>
<stop offset="0.37805" stop-color="#0068A9"/>
<stop offset="0.805494" stop-color="#009CCA"/>
<stop offset="0.980447" stop-color="#009CCA"/>
<stop offset="1" stop-color="#009CCA"/>
</linearGradient>
<linearGradient id="paint2_linear_101:2" x1="104.633" y1="100.46" x2="104.633" y2="86.6494" gradientUnits="userSpaceOnUse">
<stop stop-color="#4260BB"/>
<stop offset="0.0957778" stop-color="#4260BB"/>
<stop offset="0.37805" stop-color="#0068A9"/>
<stop offset="0.805494" stop-color="#009CCA"/>
<stop offset="0.980447" stop-color="#009CCA"/>
<stop offset="1" stop-color="#009CCA"/>
</linearGradient>
<linearGradient id="paint3_linear_101:2" x1="89.725" y1="100.46" x2="89.725" y2="86.6495" gradientUnits="userSpaceOnUse">
<stop stop-color="#4260BB"/>
<stop offset="0.0957778" stop-color="#4260BB"/>
<stop offset="0.37805" stop-color="#0068A9"/>
<stop offset="0.805494" stop-color="#009CCA"/>
<stop offset="0.980447" stop-color="#009CCA"/>
<stop offset="1" stop-color="#009CCA"/>
</linearGradient>
<linearGradient id="paint4_linear_101:2" x1="75.8103" y1="100.46" x2="75.8103" y2="86.6494" gradientUnits="userSpaceOnUse">
<stop stop-color="#4260BB"/>
<stop offset="0.0957778" stop-color="#4260BB"/>
<stop offset="0.37805" stop-color="#0068A9"/>
<stop offset="0.805494" stop-color="#009CCA"/>
<stop offset="0.980447" stop-color="#009CCA"/>
<stop offset="1" stop-color="#009CCA"/>
</linearGradient>
<linearGradient id="paint5_linear_101:2" x1="54.9456" y1="100.46" x2="54.9456" y2="86.6494" gradientUnits="userSpaceOnUse">
<stop stop-color="#4260BB"/>
<stop offset="0.0957778" stop-color="#4260BB"/>
<stop offset="0.37805" stop-color="#0068A9"/>
<stop offset="0.805494" stop-color="#009CCA"/>
<stop offset="0.980447" stop-color="#009CCA"/>
<stop offset="1" stop-color="#009CCA"/>
</linearGradient>
<linearGradient id="paint6_linear_101:2" x1="33.8465" y1="100.46" x2="33.8465" y2="86.6494" gradientUnits="userSpaceOnUse">
<stop stop-color="#4260BB"/>
<stop offset="0.0957778" stop-color="#4260BB"/>
<stop offset="0.37805" stop-color="#0068A9"/>
<stop offset="0.805494" stop-color="#009CCA"/>
<stop offset="0.980447" stop-color="#009CCA"/>
<stop offset="1" stop-color="#009CCA"/>
</linearGradient>
<linearGradient id="paint7_linear_101:2" x1="18.7399" y1="100.46" x2="18.7399" y2="86.6495" gradientUnits="userSpaceOnUse">
<stop stop-color="#4260BB"/>
<stop offset="0.0957778" stop-color="#4260BB"/>
<stop offset="0.37805" stop-color="#0068A9"/>
<stop offset="0.805494" stop-color="#009CCA"/>
<stop offset="0.980447" stop-color="#009CCA"/>
<stop offset="1" stop-color="#009CCA"/>
</linearGradient>
<linearGradient id="paint8_linear_101:2" x1="5.12494" y1="100.46" x2="5.12494" y2="86.6494" gradientUnits="userSpaceOnUse">
<stop stop-color="#4260BB"/>
<stop offset="0.0957778" stop-color="#4260BB"/>
<stop offset="0.37805" stop-color="#0068A9"/>
<stop offset="0.805494" stop-color="#009CCA"/>
<stop offset="0.980447" stop-color="#009CCA"/>
<stop offset="1" stop-color="#009CCA"/>
</linearGradient>
<linearGradient id="paint9_linear_101:2" x1="76.0596" y1="66.5715" x2="71.664" y2="37.033" gradientUnits="userSpaceOnUse">
<stop stop-color="#605BC5"/>
<stop offset="0.294251" stop-color="#0068A9"/>
<stop offset="0.980447" stop-color="#009CCA"/>
<stop offset="1" stop-color="#009CCA"/>
</linearGradient>
<linearGradient id="paint10_linear_101:2" x1="75.5331" y1="66.6496" x2="71.1375" y2="37.1112" gradientUnits="userSpaceOnUse">
<stop stop-color="#4260BB"/>
<stop offset="0.0957778" stop-color="#4260BB"/>
<stop offset="0.37805" stop-color="#0068A9"/>
<stop offset="0.805494" stop-color="#009CCA"/>
<stop offset="0.980447" stop-color="#009CCA"/>
<stop offset="1" stop-color="#009CCA"/>
</linearGradient>
</defs>
</svg>
