<svg xmlns="http://www.w3.org/2000/svg" xmlns:xlink="http://www.w3.org/1999/xlink" viewBox="0 0 283.46 283.46">

<defs>

<!-- 
ESTILO
-->

<style>.cls-1{fill:url(#Degradado_sin_nombre_81);}.cls-2{fill:url(#Degradado_sin_nombre_81-2);}.cls-3{fill:url(#Degradado_sin_nombre_81-3);}.cls-4{fill:url(#Degradado_sin_nombre_81-4);}.cls-5{fill:url(#Degradado_sin_nombre_81-5);}.cls-6{fill:url(#Degradado_sin_nombre_81-6);}.cls-7{fill:url(#Degradado_sin_nombre_81-7);}.cls-8{fill:url(#Degradado_sin_nombre_81-8);}.cls-9{fill:url(#Degradado_sin_nombre_81-9);}.cls-10{fill:url(#Degradado_sin_nombre_81-10);}.cls-11{fill:url(#Degradado_sin_nombre_81-11);}.cls-12{fill:url(#Degradado_sin_nombre_81-12);}.cls-13{fill:url(#Degradado_sin_nombre_81-13);}.cls-14{fill:url(#Degradado_sin_nombre_81-14);}</style>


<linearGradient id="Degradado_sin_nombre_81" x1="137.92" y1="53.54" x2="136.56" y2="138.41" gradientUnits="userSpaceOnUse"><stop offset="0" stop-color="#d1c21c"/><stop offset="1" stop-color="#d38624"/></linearGradient><linearGradient id="Degradado_sin_nombre_81-2" x1="138.24" y1="53.54" x2="136.88" y2="138.42" xlink:href="#Degradado_sin_nombre_81"/><linearGradient id="Degradado_sin_nombre_81-3" x1="75.81" y1="182.31" x2="75.81" y2="210.31" xlink:href="#Degradado_sin_nombre_81"/><linearGradient id="Degradado_sin_nombre_81-4" x1="91.24" y1="182.31" x2="91.24" y2="210.31" xlink:href="#Degradado_sin_nombre_81"/><linearGradient id="Degradado_sin_nombre_81-5" x1="107.8" y1="182.31" x2="107.8" y2="210.31" xlink:href="#Degradado_sin_nombre_81"/><linearGradient id="Degradado_sin_nombre_81-6" x1="125.32" y1="182.31" x2="125.32" y2="210.31" xlink:href="#Degradado_sin_nombre_81"/><linearGradient id="Degradado_sin_nombre_81-7" x1="149.19" y1="182.31" x2="149.19" y2="210.31" xlink:href="#Degradado_sin_nombre_81"/><linearGradient id="Degradado_sin_nombre_81-8" x1="173.08" y1="182.31" x2="173.08" y2="210.31" xlink:href="#Degradado_sin_nombre_81"/><linearGradient id="Degradado_sin_nombre_81-9" x1="196.99" y1="182.31" x2="196.99" y2="210.31" xlink:href="#Degradado_sin_nombre_81"/><linearGradient id="Degradado_sin_nombre_81-10" x1="116.47" y1="108.52" x2="116.47" y2="92.17" xlink:href="#Degradado_sin_nombre_81"/><linearGradient id="Degradado_sin_nombre_81-11" x1="155.35" y1="108.52" x2="155.35" y2="92.17" xlink:href="#Degradado_sin_nombre_81"/><linearGradient id="Degradado_sin_nombre_81-12" x1="166.76" y1="61.61" x2="166.35" y2="87" xlink:href="#Degradado_sin_nombre_81"/><linearGradient id="Degradado_sin_nombre_81-13" x1="191.31" y1="53.3" x2="190.9" y2="78.69" xlink:href="#Degradado_sin_nombre_81"/><linearGradient id="Degradado_sin_nombre_81-14" x1="175.14" y1="36.98" x2="174.73" y2="62.37" xlink:href="#Degradado_sin_nombre_81"/>

</defs>


<g id="Primer_plano" data-name="Primer plano">


<!-- 
CONTORNO CARA
-->

<path id="cara" class="cls-1" d="M137.11,158a53.88,53.88,0,1,1,24.82-101.7l-4.05,7.78A44.61,44.61,0,0,0,137.11,59,45.1,45.1,0,1,0,177,83l7.75-4.11A53.88,53.88,0,0,1,137.11,158Z"/>


<!-- 
BOCA
-->

<path id="boca" class="cls-2" d="M137.11,132.15a27.77,27.77,0,0,1-20.18-8.59l4.21-4a22.19,22.19,0,0,0,32,0l4.21,4A27.78,27.78,0,0,1,137.11,132.15Z"/>


<!-- 
LETRA F
-->

<path id="f" class="cls-3" d="M82.89,196.6H73.57v9.56H67.78v-24h16v4.47H73.57v5.52h9.32Z"/>


<!-- 
LETRA I
-->

<path id="i"  class="cls-4" d="M94.13,206.16H88.36v-24h5.77Z"/>


<!-- 
LETRA L
-->

<path id="l" class="cls-5" d="M105.66,201.71h10.07v4.45H99.87v-24h5.79Z"/>


<!-- 
LETRA T
-->

<path id="t" class="cls-6" d="M135.35,186.63h-7.2v19.53h-5.79V186.63h-7.07v-4.47h20.06Z"/>


<!-- 
LETRA R
-->

<path  id="r" class="cls-7" d="M148.43,197.67H145.3v8.49h-5.79v-24H149a10.55,10.55,0,0,1,6.68,1.89A6.44,6.44,0,0,1,158,189.4a7.73,7.73,0,0,1-1,4.15,7.14,7.14,0,0,1-3.17,2.67l5,9.69v.25h-6.2Zm-3.13-4.45H149a3.27,3.27,0,0,0,2.48-.87,3.31,3.31,0,0,0,.84-2.42,3.37,3.37,0,0,0-.84-2.43,3.27,3.27,0,0,0-2.48-.89H145.3Z"/>


<!-- 
LETRA O
-->

<path id="o" class="cls-8" d="M183.58,194.66a14.27,14.27,0,0,1-1.3,6.21,9.64,9.64,0,0,1-3.71,4.16,10.21,10.21,0,0,1-5.46,1.46,10.45,10.45,0,0,1-5.44-1.41,9.64,9.64,0,0,1-3.7-4,13.76,13.76,0,0,1-1.39-6v-1.35a14.26,14.26,0,0,1,1.29-6.22,9.64,9.64,0,0,1,3.71-4.16,11,11,0,0,1,10.94,0,9.75,9.75,0,0,1,3.71,4.13,13.73,13.73,0,0,1,1.35,6.14Zm-5.89-1a10.08,10.08,0,0,0-1.19-5.43,3.84,3.84,0,0,0-3.42-1.86q-4.35,0-4.6,6.53l0,1.77a10.39,10.39,0,0,0,1.17,5.42,3.83,3.83,0,0,0,3.48,1.89,3.78,3.78,0,0,0,3.38-1.86,10.11,10.11,0,0,0,1.2-5.36Z"/>


<!-- 
LETRA S
-->

<path id="s" class="cls-9" d="M200.66,199.78a2.4,2.4,0,0,0-.9-2,11.39,11.39,0,0,0-3.15-1.47,30.05,30.05,0,0,1-3.7-1.46q-4.66-2.3-4.66-6.3a5.68,5.68,0,0,1,1.16-3.52,7.62,7.62,0,0,1,3.29-2.37,12.92,12.92,0,0,1,4.78-.85,11.27,11.27,0,0,1,4.64.92,7.43,7.43,0,0,1,3.19,2.63,6.87,6.87,0,0,1,1.14,3.9h-5.77a2.87,2.87,0,0,0-.9-2.27,3.5,3.5,0,0,0-2.43-.81,4,4,0,0,0-2.45.68,2.11,2.11,0,0,0-.9,1.74,2.13,2.13,0,0,0,1,1.68,12.45,12.45,0,0,0,3.48,1.54,21.55,21.55,0,0,1,4.09,1.73q3.88,2.24,3.89,6.18a5.83,5.83,0,0,1-2.38,4.94,10.53,10.53,0,0,1-6.51,1.8,12.9,12.9,0,0,1-5.28-1.05,8,8,0,0,1-3.56-2.86,7.49,7.49,0,0,1-1.2-4.2h5.81a3.68,3.68,0,0,0,1,2.84,4.73,4.73,0,0,0,3.24.92,3.75,3.75,0,0,0,2.27-.62A2,2,0,0,0,200.66,199.78Z"/>



<!-- 
OJO IZQUIERDO
-->

<circle id="ojoizquierdo" class="cls-10" cx="116.47" cy="101.59" r="6.87"/>


<!-- 
OJO DERECHO
-->

<circle id="ojoderecho" class="cls-11" cx="155.35" cy="101.59" r="6.87"/>


<!-- 
ESTRELLA IZQUIERDA
-->

<polygon id="estrellaizquierda" class="cls-12" points="166.55 61.6 162.06 69.81 153.85 74.3 162.06 78.79 166.55 87 171.04 78.79 179.25 74.3 171.04 69.81 166.55 61.6"/>


<!-- 
ESTRELLA DERECHA
-->

<polygon id="estrelladerecha" class="cls-13" points="191.1 53.3 186.62 61.5 178.41 65.99 186.62 70.48 191.1 78.69 195.59 70.48 203.8 65.99 195.59 61.5 191.1 53.3"/>


<!-- 
ESTRELLA ARRIBA
-->

<polygon id="esetrellaarriba" class="cls-14" points="174.94 36.98 170.44 45.19 162.24 49.67 170.44 54.16 174.94 62.37 179.43 54.16 187.63 49.67 179.43 45.19 174.94 36.98"/>

</g>

</svg>