<svg  viewBox="0 0 71 104" fill="none" xmlns="http://www.w3.org/2000/svg">
<g id="Icono360">
<g id="numerofuera">
<path id="cerito" d="M56.1533 89.0362C55.4733 89.7282 55.136 90.6427 55.136 91.78V92.547C55.136 93.7056 55.472 94.6309 56.1466 95.3269C56.8213 96.0229 57.72 96.3708 58.8427 96.3708C59.956 96.3708 60.848 96.0241 61.516 95.3321C62.1826 94.6401 62.5173 93.7283 62.5173 92.6016V91.8321C62.5173 90.6534 62.1773 89.7217 61.4946 89.031C60.8133 88.343 59.9213 87.9975 58.82 87.9975C57.72 87.9975 56.8307 88.3442 56.1533 89.0362ZM57.4946 94.2309C57.1626 93.8402 56.9987 93.2963 56.9987 92.6016V91.8214C56.9987 91.0974 57.1626 90.5414 57.4946 90.1534C57.824 89.7681 58.2653 89.575 58.82 89.575C59.3813 89.575 59.8267 89.7709 60.1587 90.1589C60.488 90.5509 60.652 91.092 60.652 91.78V92.6309C60.6453 93.3203 60.48 93.8563 60.1587 94.2403C59.8347 94.6256 59.396 94.8149 58.8427 94.8149C58.272 94.8149 57.824 94.6202 57.4946 94.2309Z" fill="url(#paint0_linear_5:4742)"/>
<path id="0" d="M42.4573 89.7027C41.516 90.8374 41.0453 92.4547 41.0453 94.5494V97.384C41.0453 99.4654 41.5173 101.077 42.4626 102.22C43.408 103.364 44.744 103.935 46.4693 103.935C48.18 103.935 49.5066 103.367 50.448 102.231C51.3893 101.096 51.8586 99.4787 51.8586 97.384V94.5601C51.8586 92.4721 51.3866 90.8561 50.4413 89.7135C49.4986 88.5708 48.1653 87.9973 46.448 87.9973C44.728 87.9973 43.3986 88.5654 42.4573 89.7027ZM45.0826 100.361C44.792 99.8239 44.6453 98.9772 44.6453 97.8199V93.856C44.668 92.82 44.8186 92.0454 45.0986 91.5334C45.38 91.0241 45.8293 90.7668 46.448 90.7668C47.08 90.7668 47.54 91.0427 47.832 91.592C48.1226 92.144 48.268 92.976 48.268 94.092V97.9267C48.26 99.0427 48.112 99.8587 47.8226 100.383C47.5293 100.904 47.08 101.167 46.4693 101.167C45.836 101.167 45.3746 100.896 45.0826 100.361Z" fill="url(#paint1_linear_5:4742)"/>
<path id="6" d="M35.468 87.9866C33.92 87.9866 32.508 88.3495 31.2373 89.0735C29.9666 89.8002 28.988 90.7972 28.304 92.0719C27.6186 93.3465 27.2733 94.7854 27.2733 96.3814V97.8199C27.2893 99.0346 27.536 100.107 28.0213 101.037C28.5027 101.968 29.1773 102.683 30.044 103.184C30.9107 103.685 31.896 103.935 32.996 103.935C34.012 103.935 34.9373 103.703 35.772 103.237C36.6053 102.772 37.2573 102.129 37.72 101.304C38.1866 100.481 38.4186 99.5748 38.4186 98.5868C38.4186 96.9962 38.0213 95.7094 37.2266 94.7307C36.4293 93.7507 35.3613 93.26 34.02 93.26C32.7826 93.26 31.76 93.6573 30.9506 94.4547C31.1506 93.3107 31.6813 92.416 32.5426 91.7747C33.4066 91.1307 34.508 90.8095 35.852 90.8095H36.0106V87.9866H35.468ZM30.8653 98.2239V97.148C31.0213 96.8294 31.26 96.5602 31.5787 96.3375C31.9 96.1188 32.296 96.0094 32.7707 96.0094C33.392 96.0094 33.8853 96.2494 34.26 96.7281C34.632 97.2094 34.816 97.8282 34.816 98.5868C34.816 99.3268 34.6347 99.9399 34.268 100.429C33.904 100.92 33.4467 101.167 32.9 101.167C31.5427 101.167 30.8653 100.185 30.8653 98.2239Z" fill="url(#paint2_linear_5:4742)"/>
<path id="3" d="M15.9613 88.524C15.1546 88.8827 14.5253 89.3827 14.0693 90.0214C13.616 90.6614 13.3893 91.3907 13.3893 92.2053H16.9786C16.9786 91.7947 17.1533 91.4494 17.5066 91.1734C17.8586 90.8948 18.2706 90.7561 18.7493 90.7561C19.3306 90.7561 19.7813 90.9174 20.1013 91.2428C20.42 91.5641 20.5813 91.9814 20.5813 92.4934C20.5813 93.8067 19.908 94.4628 18.5666 94.4628H16.8733V97.1373H18.6213C19.308 97.1373 19.848 97.3028 20.24 97.6282C20.628 97.9548 20.8253 98.5079 20.8253 99.2906C20.8253 99.8386 20.636 100.287 20.26 100.639C19.884 100.989 19.3786 101.167 18.7493 101.167C18.1866 101.167 17.7133 100.992 17.3306 100.643C16.9466 100.296 16.7546 99.8855 16.7546 99.4081H13.1426C13.1426 100.281 13.3666 101.061 13.8146 101.745C14.2613 102.431 14.9213 102.968 15.7906 103.355C16.6613 103.743 17.604 103.935 18.6213 103.935C20.352 103.935 21.7506 103.521 22.8173 102.688C23.8826 101.859 24.4146 100.751 24.4146 99.3642C24.4146 98.4695 24.18 97.7186 23.712 97.1119C23.2426 96.5052 22.596 96.0508 21.7733 95.7535C22.5546 95.3842 23.1493 94.9028 23.5573 94.3108C23.9653 93.7161 24.1706 93.0865 24.1706 92.4185C24.1706 91.0412 23.6773 89.9572 22.688 89.1679C21.7013 88.3799 20.344 87.9866 18.6213 87.9866C17.6533 87.9866 16.7693 88.1667 15.9613 88.524Z" fill="url(#paint3_linear_5:4742)"/>
</g>
<g id="figura">
<g id="circulos">
<path id="circulo" d="M0 35.671C0 55.111 15.816 70.9294 35.2587 70.9294C54.7013 70.9294 70.5187 55.111 70.5187 35.671C70.5187 16.2283 54.7013 0.409592 35.2587 0.409592C15.816 0.409592 0 16.2283 0 35.671ZM5.66933 35.671C5.66933 19.3536 18.9427 6.08016 35.2587 6.08016C51.5747 6.08016 64.8493 19.3536 64.8493 35.671C64.8493 51.987 51.5747 65.2602 35.2587 65.2602C18.9427 65.2602 5.66933 51.987 5.66933 35.671Z" fill="url(#paint4_linear_5:4742)"/>
<path id="huevo" d="M14.636 35.6709C14.636 52.3856 23.8867 65.9814 35.2587 65.9814C46.6307 65.9814 55.8827 52.3856 55.8827 35.6709C55.8827 18.9536 46.6307 5.35742 35.2587 5.35742C23.8867 5.35742 14.636 18.9536 14.636 35.6709ZM18.4133 35.6709C18.4133 21.0402 25.972 9.13477 35.2587 9.13477C44.5453 9.13477 52.1027 21.0402 52.1027 35.6709C52.1027 50.2989 44.5453 62.2041 35.2587 62.2041C25.972 62.2041 18.4133 50.2989 18.4133 35.6709Z" fill="url(#paint5_linear_5:4742)"/>
<path id="ovalo" d="M4.94531 35.6708C4.94531 43.6175 17.9773 49.6106 35.2586 49.6106C52.54 49.6106 65.572 43.6175 65.572 35.6708C65.572 27.7215 52.54 21.7281 35.2586 21.7281C17.9773 21.7281 4.94531 27.7215 4.94531 35.6708ZM8.72531 35.6708C8.72531 30.8642 19.6213 25.5081 35.2586 25.5081C50.896 25.5081 61.792 30.8642 61.792 35.6708C61.792 40.4762 50.896 45.8306 35.2586 45.8306C19.6213 45.8306 8.72531 40.4762 8.72531 35.6708Z" fill="url(#paint6_linear_5:4742)"/>
</g>
<g id="numerodentro">
<path id="ceritocerito" d="M44.7747 30.36C44.28 30.9547 44.0347 31.7509 44.0347 32.7415C44.0347 33.7309 44.28 34.5199 44.7747 35.1133C45.2693 35.7039 45.9253 36 46.748 36C47.5733 36 48.232 35.7042 48.724 35.1175C49.216 34.5282 49.4613 33.7349 49.4613 32.7415C49.4613 31.7442 49.216 30.9494 48.724 30.3587C48.232 29.7654 47.5733 29.4694 46.748 29.4694C45.9253 29.4694 45.2693 29.7667 44.7747 30.36ZM46.0853 34.1868C45.9293 33.8482 45.8533 33.3682 45.8533 32.7415C45.8533 32.1082 45.9293 31.6202 46.0853 31.2816C46.2387 30.9429 46.4613 30.7734 46.748 30.7734C47.0387 30.7734 47.2627 30.9429 47.4213 31.2816C47.5787 31.6202 47.6587 32.1082 47.6587 32.7415C47.6587 33.3735 47.5787 33.8562 47.4213 34.1882C47.2627 34.5228 47.0387 34.6908 46.748 34.6908C46.4613 34.6908 46.2387 34.5215 46.0853 34.1868Z" fill="url(#paint7_linear_5:4742)"/>
<path id="00" d="M37.144 31.1602C36.5173 32.1962 36.2053 33.6187 36.2053 35.4281C36.2053 37.2414 36.5186 38.6669 37.1453 39.7002C37.7733 40.7335 38.6333 41.252 39.7213 41.252C40.804 41.252 41.6546 40.7373 42.2706 39.7106C42.8866 38.6839 43.1933 37.2561 43.1933 35.4281C43.1933 33.5947 42.8866 32.1653 42.2706 31.1413C41.6546 30.1173 40.8 29.6055 39.7066 29.6055C38.6226 29.6055 37.768 30.1228 37.144 31.1602ZM38.8693 38.3174C38.6907 37.7134 38.6053 36.7507 38.6053 35.4281C38.6053 34.1001 38.6907 33.1374 38.8693 32.5374C39.0453 31.9388 39.3253 31.6387 39.7066 31.6387C40.088 31.6387 40.3667 31.9363 40.5387 32.5309C40.7093 33.1269 40.7947 34.0921 40.7947 35.4281C40.7947 36.7601 40.7093 37.7255 40.5333 38.3255C40.3586 38.9242 40.084 39.2227 39.7066 39.2227C39.3253 39.2227 39.0453 38.9214 38.8693 38.3174Z" fill="url(#paint8_linear_5:4742)"/>
<path id="66" d="M31.8867 29.8347L29.408 34.0177C29.0547 34.619 28.7867 35.2148 28.6027 35.8041C28.42 36.3948 28.328 36.9523 28.328 37.4776C28.328 38.5843 28.66 39.4922 29.3253 40.2016C29.992 40.9109 30.84 41.2654 31.8733 41.2654C32.8653 41.2654 33.6787 40.9267 34.3093 40.2507C34.9427 39.5747 35.2587 38.7094 35.2587 37.6547C35.2587 36.5707 34.964 35.7081 34.376 35.0668C33.7853 34.4255 32.996 34.1042 32.008 34.1042C31.908 34.1042 31.8307 34.1042 31.7773 34.1042C31.7267 34.1042 31.6747 34.1043 31.628 34.1176L34.4413 29.8347H31.8867ZM30.8613 38.8803C30.628 38.5696 30.512 38.152 30.512 37.6267C30.512 37.1094 30.628 36.6975 30.8613 36.3868C31.096 36.0775 31.408 35.9229 31.8 35.9229C32.192 35.9229 32.504 36.0762 32.7373 36.3842C32.9733 36.6922 33.0893 37.1067 33.0893 37.6267C33.0893 38.152 32.9733 38.5696 32.7427 38.8803C32.5093 39.191 32.196 39.3455 31.8 39.3455C31.408 39.3455 31.096 39.191 30.8613 38.8803Z" fill="url(#paint9_linear_5:4742)"/>
<path id="33" d="M21.4733 30.4465C20.9107 31.0079 20.6013 31.7814 20.5493 32.7708H22.5907C22.6147 32.3948 22.728 32.104 22.932 31.9013C23.1333 31.6973 23.412 31.5959 23.7667 31.5959C24.1467 31.5959 24.448 31.7095 24.6667 31.9361C24.8867 32.1641 24.9973 32.4747 24.9973 32.8707C24.9973 33.3347 24.856 33.6987 24.5707 33.968C24.2867 34.2347 23.896 34.3694 23.4 34.3694C23.3227 34.3694 23.2653 34.3681 23.228 34.3694C23.1893 34.3694 23.1533 34.3694 23.1213 34.356V36.2333C23.16 36.2333 23.1973 36.22 23.2347 36.22C23.2747 36.22 23.3333 36.22 23.4147 36.22C23.9253 36.22 24.3107 36.3519 24.5733 36.6132C24.8373 36.8759 24.9693 37.264 24.9693 37.7734C24.9693 38.2414 24.856 38.604 24.628 38.8586C24.4013 39.1133 24.0853 39.2428 23.68 39.2428C23.264 39.2428 22.936 39.1254 22.6973 38.8948C22.4587 38.6628 22.3307 38.3348 22.3107 37.9094H20.2573C20.332 38.9361 20.684 39.7495 21.3093 40.3521C21.9333 40.9521 22.7427 41.2561 23.7373 41.2561C24.7573 41.2561 25.5867 40.9442 26.2173 40.3228C26.8493 39.7028 27.1667 38.8934 27.1667 37.8961C27.1667 37.2507 27.0267 36.7055 26.744 36.2548C26.4613 35.8068 26.0467 35.4586 25.4987 35.2092C26.004 34.9852 26.3853 34.6575 26.64 34.2255C26.8947 33.7935 27.024 33.2546 27.024 32.6106C27.024 31.7079 26.7227 30.9815 26.1213 30.4335C25.52 29.8842 24.72 29.6093 23.7227 29.6093C22.7867 29.6093 22.036 29.8894 21.4733 30.4508" fill="url(#paint10_linear_5:4742)"/>
</g>
</g>
</g>
<defs>
<linearGradient id="paint0_linear_5:4742" x1="58.8263" y1="103.627" x2="58.8263" y2="90.1775" gradientUnits="userSpaceOnUse">
<stop stop-color="#3E8E5D"/>
<stop offset="0.520276" stop-color="#66B100"/>
<stop offset="0.992462" stop-color="#BEBF00"/>
<stop offset="1" stop-color="#BEBF00"/>
</linearGradient>
<linearGradient id="paint1_linear_5:4742" x1="46.4528" y1="103.627" x2="46.4528" y2="90.1774" gradientUnits="userSpaceOnUse">
<stop stop-color="#3E8E5D"/>
<stop offset="0.520276" stop-color="#66B100"/>
<stop offset="0.992462" stop-color="#BEBF00"/>
<stop offset="1" stop-color="#BEBF00"/>
</linearGradient>
<linearGradient id="paint2_linear_5:4742" x1="32.847" y1="103.627" x2="32.847" y2="90.1774" gradientUnits="userSpaceOnUse">
<stop stop-color="#3E8E5D"/>
<stop offset="0.520276" stop-color="#66B100"/>
<stop offset="0.992462" stop-color="#BEBF00"/>
<stop offset="1" stop-color="#BEBF00"/>
</linearGradient>
<linearGradient id="paint3_linear_5:4742" x1="18.7796" y1="103.627" x2="18.7796" y2="90.1774" gradientUnits="userSpaceOnUse">
<stop stop-color="#3E8E5D"/>
<stop offset="0.520276" stop-color="#66B100"/>
<stop offset="0.992462" stop-color="#BEBF00"/>
<stop offset="1" stop-color="#BEBF00"/>
</linearGradient>
<linearGradient id="paint4_linear_5:4742" x1="32.98" y1="67.4043" x2="36.4086" y2="19.6681" gradientUnits="userSpaceOnUse">
<stop stop-color="#3E8E5D"/>
<stop offset="0.520276" stop-color="#66B100"/>
<stop offset="0.992462" stop-color="#BEBF00"/>
<stop offset="1" stop-color="#BEBF00"/>
</linearGradient>
<linearGradient id="paint5_linear_5:4742" x1="32.98" y1="67.404" x2="36.4086" y2="19.6678" gradientUnits="userSpaceOnUse">
<stop stop-color="#3E8E5D"/>
<stop offset="0.520276" stop-color="#66B100"/>
<stop offset="0.992462" stop-color="#BEBF00"/>
<stop offset="1" stop-color="#BEBF00"/>
</linearGradient>
<linearGradient id="paint6_linear_5:4742" x1="32.9794" y1="67.4037" x2="36.4079" y2="19.6676" gradientUnits="userSpaceOnUse">
<stop stop-color="#3E8E5D"/>
<stop offset="0.520276" stop-color="#66B100"/>
<stop offset="0.992462" stop-color="#BEBF00"/>
<stop offset="1" stop-color="#BEBF00"/>
</linearGradient>
<linearGradient id="paint7_linear_5:4742" x1="44.2006" y1="68.2095" x2="47.6291" y2="20.4738" gradientUnits="userSpaceOnUse">
<stop stop-color="#3E8E5D"/>
<stop offset="0.520276" stop-color="#66B100"/>
<stop offset="0.992462" stop-color="#BEBF00"/>
<stop offset="1" stop-color="#BEBF00"/>
</linearGradient>
<linearGradient id="paint8_linear_5:4742" x1="37.3805" y1="67.7195" x2="40.8089" y2="19.9841" gradientUnits="userSpaceOnUse">
<stop stop-color="#3E8E5D"/>
<stop offset="0.520276" stop-color="#66B100"/>
<stop offset="0.992462" stop-color="#BEBF00"/>
<stop offset="1" stop-color="#BEBF00"/>
</linearGradient>
<linearGradient id="paint9_linear_5:4742" x1="29.6676" y1="67.1663" x2="33.0961" y2="19.4301" gradientUnits="userSpaceOnUse">
<stop stop-color="#3E8E5D"/>
<stop offset="0.520276" stop-color="#66B100"/>
<stop offset="0.992462" stop-color="#BEBF00"/>
<stop offset="1" stop-color="#BEBF00"/>
</linearGradient>
<linearGradient id="paint10_linear_5:4742" x1="21.6184" y1="66.5885" x2="25.0471" y2="18.8517" gradientUnits="userSpaceOnUse">
<stop stop-color="#3E8E5D"/>
<stop offset="0.520276" stop-color="#66B100"/>
<stop offset="0.992462" stop-color="#BEBF00"/>
<stop offset="1" stop-color="#BEBF00"/>
</linearGradient>
</defs>
</svg>
